# xmcd
#
# Track frame offsets: 
#        150
#        14015
#        27960
#        46218
#        60608
#        70423
#        90785
#        110723
#        123935
#        140918
#        154720
#        171530
#        188590
#        203548
#        215905
#
# Disc length: 3109 seconds
#
# Revision: 0
# Processed by: cddbd v1.5.2PL0 Copyright (c) Steve Scherf et al.
# Submitted via: ExactAudioCopyFreeDBPlugin 1.0
#
DISCID=d90c230f
DTITLE=KC and The Sunshine Band - Ultimate KC and The Sunshine Band (15 Or
DTITLE=iginal Hits)
DYEAR=2014
DGENRE=Funk
TTITLE0=That's The Way (I Like It)
TTITLE1=(Shake, Shake, Shake) Shake Your Booty
TTITLE2=I'm You Boogie Man
TTITLE3=Get Down Tonight
TTITLE4=Boogie Shoes
TTITLE5=Keep It Comin' Love
TTITLE6=All I Want
TTITLE7=I Like To Do It
TTITLE8=Who Do Ya Love
TTITLE9=Sound Your Funky Horn
TTITLE10=Wrap Your Arms Around Me
TTITLE11=Do You Wanna Go Party
TTITLE12=Queen Of Clubs
TTITLE13=Shotgun Shuffle
TTITLE14=Please Don't Go
EXTD=
EXTT0=
EXTT1=
EXTT2=
EXTT3=
EXTT4=
EXTT5=
EXTT6=
EXTT7=
EXTT8=
EXTT9=
EXTT10=
EXTT11=
EXTT12=
EXTT13=
EXTT14=
PLAYORDER=
